<svg xmlns="http://www.w3.org/2000/svg" width="70" height="70" viewBox="0 0 521 517" version="1.1">
  <path d="M 271.071 114.752 C 269.185 115.713, 266.710 117.770, 265.571 119.323 C 263.534 122.100, 263.495 123.210, 263.199 187.823 C 263.001 230.951, 263.253 254.721, 263.931 257.057 C 264.627 259.452, 267.011 262.422, 271.232 266.154 C 274.680 269.201, 295.725 289.146, 318 310.476 C 340.275 331.805, 359.850 350.098, 361.500 351.125 C 367.815 355.056, 376.810 352.869, 381.102 346.359 C 383.220 343.146, 383.603 336.419, 381.883 332.643 C 380.965 330.628, 313.718 265.166, 297.219 250.227 L 292.500 245.953 292 183.556 L 291.500 121.160 289 118.451 C 284.059 113.098, 277.122 111.666, 271.071 114.752 M 187.020 152.752 C 182.024 155.261, 179 160.258, 179 166 C 179 181.237, 199.157 186.612, 206.734 173.396 C 214.121 160.510, 200.328 146.066, 187.020 152.752 M 349.742 153.224 C 345.725 155.552, 342 161.776, 342 166.158 C 342 170.272, 346.218 177.112, 350.009 179.145 C 359.998 184.501, 372 177.327, 372 166 C 372 154.402, 359.795 147.397, 349.742 153.224 M 152.500 238.888 C 145.963 241.733, 142.067 249.820, 143.919 256.698 C 147.033 268.265, 162.242 271.596, 169.842 262.375 C 175.256 255.807, 174.765 248.072, 168.551 242.050 C 165.637 239.225, 164.197 238.616, 159.782 238.344 C 156.877 238.165, 153.600 238.410, 152.500 238.888 M 386.999 240.250 C 383.098 242.913, 380 248.299, 380 252.419 C 380 257.723, 383.683 263.668, 388.376 265.940 C 393.642 268.489, 397.499 268.548, 402.016 266.148 C 415.900 258.770, 410.651 238.017, 394.898 238.004 C 391.764 238.001, 389.244 238.718, 386.999 240.250 M 186.241 320.995 C 176.522 326.920, 176.666 341.190, 186.500 346.718 C 191.487 349.522, 195.171 349.580, 200.624 346.940 C 208.311 343.219, 211.232 332.582, 206.536 325.414 C 202.456 319.188, 192.691 317.062, 186.241 320.995 M 271.564 352.071 C 268.744 352.554, 266.545 353.906, 263.814 356.834 C 260.414 360.478, 260 361.484, 260 366.093 C 260 372.723, 262.698 377.191, 268.353 379.929 C 273.624 382.480, 276.298 382.502, 281.729 380.036 C 289.472 376.521, 292.662 368.065, 289.056 360.616 C 285.694 353.670, 279.599 350.693, 271.564 352.071" stroke="none" fill="#ffffff" fill-rule="evenodd"/>
  <path d="M 248.500 6.075 C 238.360 6.744, 232.816 7.410, 216.500 9.918 C 209.017 11.068, 189.787 16.095, 180.500 19.329 C 139.770 33.510, 99.649 60.559, 72.584 92.081 C 59.987 106.753, 48 122.681, 48 124.749 C 48 125.075, 47.370 126.053, 46.601 126.921 C 42.921 131.073, 30.258 156.370, 24.788 170.500 C 14.563 196.909, 9.324 221.351, 7.051 253.250 C 6.056 267.211, 6.861 286.276, 9.077 301.202 C 9.673 305.216, 10.522 311.200, 10.964 314.500 C 11.921 321.651, 15.013 333.954, 19.130 347 C 25.357 366.732, 32.178 381.925, 43.826 402 C 46.857 407.225, 50.161 412.429, 51.169 413.564 C 52.176 414.700, 53 415.922, 53 416.280 C 53 416.639, 56.487 421.508, 60.750 427.101 C 65.012 432.694, 68.950 437.904, 69.500 438.680 C 70.538 440.142, 66.301 444.607, 49.031 460.250 C 44.932 463.962, 42.265 467, 43.103 467 C 43.941 467, 54.048 470.405, 65.563 474.566 C 77.079 478.727, 87.850 482.523, 89.500 483.001 C 91.150 483.479, 98.125 485.953, 105 488.498 C 111.875 491.043, 119.300 493.707, 121.500 494.417 C 123.700 495.126, 137.133 499.853, 151.351 504.919 C 165.569 509.986, 177.455 513.879, 177.764 513.569 C 178.073 513.260, 176.850 507.493, 175.047 500.754 C 168.536 476.420, 167.395 472.107, 158.978 440 C 157.464 434.225, 155.013 424.775, 153.531 419 C 152.049 413.225, 149.767 404.675, 148.461 400 C 147.154 395.325, 145.336 388.350, 144.421 384.500 C 143.506 380.650, 142.467 376.955, 142.111 376.289 C 141.483 375.113, 136.633 379.118, 124.880 390.518 C 122.339 392.983, 119.830 395, 119.304 395 C 116.740 395, 101.226 372.379, 93.928 358 C 85.990 342.357, 77.321 319.289, 75.702 309.500 C 75.429 307.850, 74.260 301.876, 73.105 296.225 C 70.464 283.310, 69.400 256.457, 70.816 238.500 C 71.911 224.608, 74.631 210.447, 78.691 197.500 C 80.071 193.100, 81.347 188.751, 81.526 187.836 C 82.668 182.008, 95.923 154.611, 102.806 143.853 C 111.533 130.213, 116.405 124.029, 128.500 111.238 C 146.455 92.249, 165.342 78.322, 188.500 66.993 C 208.133 57.388, 229.189 50.348, 243.770 48.513 C 245.821 48.255, 250.875 47.486, 255 46.803 C 264.683 45.201, 297.317 45.201, 307 46.803 C 311.125 47.486, 316.179 48.255, 318.230 48.513 C 325.422 49.418, 340.728 53.498, 351.500 57.382 C 383.070 68.764, 409.679 86.198, 433.144 110.876 C 445.095 123.445, 449.450 128.943, 459.453 144.090 C 467.710 156.594, 478.226 179.941, 483.284 197 C 490.469 221.227, 492.319 235.805, 491.751 263.700 C 491.328 284.512, 491.013 287.764, 488.148 301 C 482.130 328.794, 472.045 353.967, 458.701 374.500 C 430.313 418.182, 390.134 448.571, 342 462.765 C 322.632 468.476, 308.605 470.750, 285 472.005 L 269.500 472.829 289 472.503 C 306.249 472.214, 310.116 471.825, 322.500 469.133 C 336.437 466.103, 348.621 462.483, 361 457.693 C 372.178 453.368, 391.423 444.143, 392.586 442.552 C 393.197 441.715, 393.981 441.315, 394.328 441.661 C 395.324 442.658, 414.383 430.574, 427.094 420.887 C 441.239 410.107, 460.701 390.807, 469.773 378.565 C 473.473 373.572, 477.496 368.140, 478.713 366.493 C 482.437 361.457, 492.428 343.996, 496.911 334.688 C 515.430 296.242, 522.799 246.993, 515.942 207.500 C 515.369 204.200, 514.520 199.025, 514.055 196 C 513.069 189.587, 509.666 176.859, 506.835 169 C 505.746 165.975, 504.504 162.124, 504.076 160.442 C 502.700 155.038, 489.395 128.815, 482.795 118.500 C 459.443 82.002, 426.988 52.890, 387.500 33.019 C 374.114 26.284, 371.534 25.211, 354.500 19.296 C 323.952 8.689, 284.134 3.722, 248.500 6.075" stroke="none" fill="#ffffff" fill-rule="evenodd"/>
  <path d="M 260.500 73.618 C 252.855 74.729, 232.070 79.419, 227.066 81.162 C 224.005 82.229, 219.973 83.567, 218.106 84.137 C 212.265 85.921, 194.861 94.482, 186.254 99.805 C 168.682 110.673, 149.239 128.492, 136.705 145.214 C 109.798 181.114, 97.422 224.292, 100.731 270.725 C 104.626 325.396, 134.631 377.048, 180.458 407.971 C 189.123 413.818, 204.864 422.349, 212.233 425.191 C 254.998 441.686, 296.337 443.095, 337.555 429.464 C 399.434 408.999, 444.394 358.033, 458.693 292.142 C 461.241 280.405, 461.439 277.818, 461.469 256 C 461.497 234.898, 461.260 231.429, 459.147 222 C 457.853 216.225, 456.649 210.749, 456.471 209.832 C 456.292 208.914, 454.786 203.964, 453.122 198.832 C 435.597 144.748, 393.302 101.354, 340 82.769 C 335.325 81.139, 325.650 78.458, 318.500 76.811 C 306.672 74.087, 303.607 73.789, 284.500 73.499 C 272.950 73.325, 262.150 73.378, 260.500 73.618 M 271.071 114.752 C 269.185 115.713, 266.710 117.770, 265.571 119.323 C 263.534 122.100, 263.495 123.210, 263.199 187.823 C 263.001 230.951, 263.253 254.721, 263.931 257.057 C 264.627 259.452, 267.011 262.422, 271.232 266.154 C 274.680 269.201, 295.725 289.146, 318 310.476 C 340.275 331.805, 359.850 350.098, 361.500 351.125 C 367.815 355.056, 376.810 352.869, 381.102 346.359 C 383.220 343.146, 383.603 336.419, 381.883 332.643 C 380.965 330.628, 313.718 265.166, 297.219 250.227 L 292.500 245.953 292 183.556 L 291.500 121.160 289 118.451 C 284.059 113.098, 277.122 111.666, 271.071 114.752 M 187.020 152.752 C 182.024 155.261, 179 160.258, 179 166 C 179 181.237, 199.157 186.612, 206.734 173.396 C 214.121 160.510, 200.328 146.066, 187.020 152.752 M 349.742 153.224 C 345.725 155.552, 342 161.776, 342 166.158 C 342 170.272, 346.218 177.112, 350.009 179.145 C 359.998 184.501, 372 177.327, 372 166 C 372 154.402, 359.795 147.397, 349.742 153.224 M 152.500 238.888 C 145.963 241.733, 142.067 249.820, 143.919 256.698 C 147.033 268.265, 162.242 271.596, 169.842 262.375 C 175.256 255.807, 174.765 248.072, 168.551 242.050 C 165.637 239.225, 164.197 238.616, 159.782 238.344 C 156.877 238.165, 153.600 238.410, 152.500 238.888 M 386.999 240.250 C 383.098 242.913, 380 248.299, 380 252.419 C 380 257.723, 383.683 263.668, 388.376 265.940 C 393.642 268.489, 397.499 268.548, 402.016 266.148 C 415.900 258.770, 410.651 238.017, 394.898 238.004 C 391.764 238.001, 389.244 238.718, 386.999 240.250 M 186.241 320.995 C 176.522 326.920, 176.666 341.190, 186.500 346.718 C 191.487 349.522, 195.171 349.580, 200.624 346.940 C 208.311 343.219, 211.232 332.582, 206.536 325.414 C 202.456 319.188, 192.691 317.062, 186.241 320.995 M 271.564 352.071 C 268.744 352.554, 266.545 353.906, 263.814 356.834 C 260.414 360.478, 260 361.484, 260 366.093 C 260 372.723, 262.698 377.191, 268.353 379.929 C 273.624 382.480, 276.298 382.502, 281.729 380.036 C 289.472 376.521, 292.662 368.065, 289.056 360.616 C 285.694 353.670, 279.599 350.693, 271.564 352.071" stroke="none" fill="#d42c2c" fill-rule="evenodd"/>
</svg>
