<svg xmlns="http://www.w3.org/2000/svg" width="772.516" height="772.516"><g transform="translate(-68.028 -23.25)"><path d="M454.278 160.512c-99.484 0-179.81 80.41-179.81 179.59 0 31.186 7.969 60.528 21.938 86.094l157.88 264.31 157.88-264.31c13.969-25.566 21.938-54.908 21.938-86.094 0-99.184-80.328-179.59-179.81-179.59zm-2 104.37c.667-.017 1.329 0 2 0 42.975 0 77.812 34.838 77.812 77.813s-34.838 77.812-77.812 77.812c-42.975 0-77.812-34.838-77.812-77.812 0-42.303 33.766-76.747 75.812-77.813z" style="fill:#ffffff;stroke:none;stroke-width:10.39700031"/><circle cx="454.286" cy="409.509" r="368.758" style="opacity:1;fill:none;fill-opacity:1;fill-rule:evenodd;stroke:#ffffff;stroke-width:35;stroke-linecap:butt;stroke-linejoin:round;stroke-miterlimit:4;stroke-dasharray:none;stroke-opacity:1"/></g></svg>